<svg height="512pt" viewBox="0 0 512 512.00032" width="512pt" xmlns="http://www.w3.org/2000/svg" xmlns:xlink="http://www.w3.org/1999/xlink"><linearGradient id="a" gradientTransform="matrix(.332341 0 0 -.332341 -.008149 520.425799)" gradientUnits="userSpaceOnUse" x1=".0257" x2="1540.5627" y1="795.6468" y2="795.6468"><stop offset="0" stop-color="#41dfd0"/><stop offset="1" stop-color="#ee83ef"/></linearGradient><path d="m503.449219 426.652344h-33.277344c-10.8125-5.597656-22.808594-8.523438-34.984375-8.53125h-10.925781c7.101562-40.011719 4.5-81.144532-7.585938-119.941406l-10.441406-33.433594c17.757813 13.066406 38.835937 20.867187 60.824219 22.503906l35.785156 2.558594h.605469c4.714843-.023438 8.515625-3.863282 8.488281-8.578125-.007812-2.21875-.882812-4.34375-2.4375-5.929688l-20.359375-20.476562c-14.898437-14.980469-33.605469-25.601563-54.101563-30.71875 0-.511719.148438-1 .148438-1.511719-.035156-3.386719-.65625-6.742188-1.835938-9.914062 16.738282-12.429688 29.824219-29.132813 37.886719-48.359376l11.144531-26.632812c1.820313-4.34375-.226562-9.34375-4.574218-11.164062-2.277344-.957032-4.859375-.875-7.074219.21875l-32.136719 15.820312c-12.488281 6.210938-23.757812 14.613281-33.277344 24.804688.800782-17.148438-2.175781-34.261719-8.722656-50.132813l-11.089844-26.648437c-1.816406-4.347657-6.816406-6.398438-11.164062-4.582032-2.269531.945313-4.019531 2.828125-4.800781 5.164063l-11.351563 34.027343c-4.792968 14.492188-6.703125 29.78125-5.613281 45.003907-10.082031-11.472657-22.3125-20.859375-36-27.636719l-32.1875-15.855469c-4.226563-2.085937-9.34375-.351562-11.429687 3.875-1.09375 2.214844-1.171876 4.796875-.21875 7.074219l11.152343 26.632812c8.992188 21.539063 24.300781 39.855469 43.902344 52.527344-.378906 1.878906-.574219 3.792969-.578125 5.707032-23.203125 4.335937-44.550781 15.59375-61.234375 32.292968l-20.359375 20.476563c-3.300781 3.367187-3.246094 8.769531.121094 12.066406 1.582031 1.554687 3.710937 2.429687 5.929687 2.441406h.613281l35.777344-2.5625c23.332032-1.757812 45.597656-10.460937 63.941406-24.984375l14.597657 54.730469c5.925781 22.171875 5.210937 45.59375-2.054688 67.363281l-11.28125 33.773438h-11.945312c-12.175781.007812-24.175781 2.933594-34.988281 8.53125h-157.742188l-19.976562-19.964844c-9.472657-9.464844-11.816407-23.933594-5.808594-35.898438l1.980468-3.976562c16.457032-.597656 29.320313-14.421875 28.722657-30.882812-.59375-16.460938-14.421875-29.320313-30.882813-28.726563-3.621094.132813-7.191406.921875-10.53125 2.332031-.316406.1875-.621094.398438-.910156.625-8.140625-3.980468-17.667969-3.960937-25.789062.058594-4.003907-1.96875-8.402344-3.003906-12.867188-3.027344-16.496094 0-29.867188 13.371094-29.867188 29.863282.027344 6.6875 2.320313 13.164062 6.503907 18.382812l-47.835938 75.164062c-.128906.207032-.136719.4375-.25.648438-.253906.507812-.457031 1.035156-.605469 1.582031-.175781.550781-.289062 1.125-.339843 1.703125 0 .230469-.136719.429688-.136719.667969v68.265625c0 4.710938 3.820312 8.53125 8.535156 8.53125h494.914063c4.714843 0 8.535156-3.820312 8.535156-8.53125v-68.28125c0-4.714844-3.820313-8.535156-8.535156-8.535156zm-26.410157-159.808594 4.269532 4.320312-13.058594-.949218c-19.160156-1.425782-37.507812-8.351563-52.835938-19.941406 5.46875-1.933594 10.242188-5.441407 13.722657-10.078126 18.15625 4.199219 34.761719 13.433594 47.902343 26.648438zm-30.9375-108.980469 11.730469-5.777343-2.347656 5.605468c-6.914063 16.375-18.117187 30.585938-32.425781 41.136719-4.78125-3.523437-10.519532-5.507813-16.457032-5.691406 9.757813-15.09375 23.402344-27.28125 39.5-35.273438zm-40.429687 52.246094c6.871094.003906 12.445313 5.574219 12.449219 12.449219-.054688 4.269531-2.316406 8.210937-5.972656 10.410156-3.015626-7.789062-9.183594-13.9375-16.980469-16.929688 2.222656-3.675781 6.207031-5.921874 10.503906-5.929687zm-8.535156 33.433594c0 6.875-5.574219 12.449219-12.449219 12.449219s-12.449219-5.574219-12.449219-12.449219 5.574219-12.449219 12.449219-12.449219c6.875.003906 12.445312 5.574219 12.449219 12.449219zm-97.523438-85.851563-2.347656-5.605468 11.734375 5.773437c16.46875 8.171875 30.367188 20.722656 40.171875 36.277344-5.035156 1.300781-9.636719 3.917969-13.335937 7.574219-16.144532-10.785157-28.746094-26.097657-36.222657-44.019532zm-12.800781 112.523438-13.054688.949218 4.265626-4.320312c14.703124-14.699219 33.628906-24.445312 54.132812-27.875 2.613281 3.808594 6.074219 6.960938 10.113281 9.199219-15.808593 12.820312-35.152343 20.515625-55.449219 22.046875zm69.757812-35.214844c-6.875-.070312-12.390624-5.703125-12.316406-12.578125.070313-6.878906 5.703125-12.390625 12.578125-12.320313 4.710938.050782 8.984375 2.75 11.054688 6.980469.332031.546875.722656 1.058594 1.167969 1.519531-5.992188 3.789063-10.417969 9.613282-12.476563 16.398438zm17.714844-104.402344 4.148438-12.414062 2.335937 5.613281c8.117188 19.605469 9.792969 41.28125 4.789063 61.898437-.785156 3.175782-4.089844 11.382813-6.597656 17.476563-.699219-.792969-1.4375-1.546875-2.21875-2.261719 0-.074218 0-.160156 0-.238281l-2.414063-7.246094c-6.753906-20.394531-6.765625-42.421875-.035156-62.828125zm8.773438 181.992188-11.394532-42.664063c4.035157 2.046875 8.492188 3.128907 13.015626 3.15625 2.039062-.003906 4.070312-.21875 6.066406-.640625l9.640625 30.855469c11.359375 36.472656 13.738281 75.152344 6.929687 112.742187l-.367187 2.082032h-35.703125l9.457031-28.375c8.339844-24.929688 9.160156-51.761719 2.363281-77.15625zm-258.59375 114.0625h-100.382813l39.0625-61.386719c7.285157 2.613281 15.320313 2.117187 22.230469-1.363281 6.558594 3.285156 14.136719 3.917968 21.152344 1.765625-7.878906 18.074219-3.902344 39.128906 10.027344 53.082031zm-13.234375-89.597656c-.035157 6.644531-5.144531 12.164062-11.769531 12.699218 3.914062-8.015625 3.914062-17.382812 0-25.394531 6.625.535156 11.738281 6.050781 11.769531 12.695313zm25.300781 0c-.03125 6.390624-4.765625 11.777343-11.09375 12.628906 3.867188-7.972656 3.867188-17.28125 0-25.257813 6.328125.851563 11.0625 6.242188 11.09375 12.628907zm-64-12.800782c7.070312 0 12.800781 5.734375 12.800781 12.800782 0 7.070312-5.730469 12.800781-12.800781 12.800781s-12.800781-5.730469-12.800781-12.800781c0-7.066407 5.730469-12.800782 12.800781-12.800782zm-55.464844 119.464844h267.179688c-12.6875 14.035156-19.714844 32.277344-19.722656 51.199219h-247.457032zm264.523438 51.199219c.039062-32.972657 26.757812-59.695313 59.734375-59.730469h93.863281c32.972656.035156 59.691406 26.757812 59.730469 59.730469zm210.671875-51.199219h2.65625v3.039062c-.855469-1.050781-1.757813-2.039062-2.65625-3.039062zm-389.863281-290.125c28.273437 0 51.195312-22.921875 51.195312-51.199219 0-28.273437-22.921875-51.195312-51.195312-51.195312-28.277344 0-51.199219 22.921875-51.199219 51.195312.027343 28.265625 22.933593 51.171875 51.199219 51.199219zm0-85.328125c18.847656 0 34.128906 15.28125 34.128906 34.128906 0 18.851563-15.28125 34.132813-34.128906 34.132813-18.851563 0-34.132813-15.28125-34.132813-34.128906 0-18.851563 15.28125-34.132813 34.132813-34.132813zm-8.535157-42.667969v-17.066406c0-4.710938 3.820313-8.53125 8.535157-8.53125 4.710937 0 8.53125 3.820312 8.53125 8.53125v17.066406c0 4.714844-3.820313 8.535156-8.53125 8.535156-4.714844 0-8.535157-3.820312-8.535157-8.535156zm-63.867187 16.460938c-3.390625-3.273438-3.484375-8.675782-.210938-12.066406 3.273438-3.386719 8.675782-3.480469 12.066406-.207032.070313.066406.140626.136719.207032.207032l12.066406 12.066406c3.390625 3.273437 3.484375 8.675781.210938 12.066406-3.273438 3.390625-8.675782 3.484375-12.066407.210938-.070312-.070313-.140625-.140626-.210937-.210938zm-29.996094 60.335937c0-4.710937 3.820312-8.53125 8.535156-8.53125h17.066406c4.710938 0 8.53125 3.820313 8.53125 8.53125 0 4.714844-3.820312 8.535157-8.53125 8.535157h-17.066406c-4.714844 0-8.535156-3.820313-8.535156-8.535157zm54.125 48.273438c3.332031 3.332031 3.332031 8.734375 0 12.066406l-12.066406 12.066406c-3.386719 3.273438-8.789063 3.179688-12.0625-.210937-3.195313-3.308594-3.195313-8.550782 0-11.855469l12.0625-12.066406c3.332031-3.332031 8.734375-3.332031 12.066406 0zm48.273438 19.992187c4.710937 0 8.53125 3.820313 8.53125 8.535156v17.066407c0 4.710937-3.820313 8.53125-8.53125 8.53125-4.714844 0-8.535157-3.820313-8.535157-8.53125v-17.066407c0-4.714843 3.820313-8.535156 8.535157-8.535156zm60.335937 4.140625-12.066406-12.066406c-3.273438-3.390625-3.179688-8.792969.210937-12.066406 3.304688-3.191407 8.546875-3.191407 11.855469 0l12.066406 12.066406c3.390625 3.273437 3.484375 8.675781.210938 12.066406-3.277344 3.386719-8.675781 3.484375-12.066407.207031-.074218-.066406-.140624-.136718-.210937-.207031zm16.460937-80.9375h17.066407c4.710937 0 8.53125 3.820313 8.53125 8.535157 0 4.710937-3.820313 8.53125-8.53125 8.53125h-17.066407c-4.714843 0-8.535156-3.820313-8.535156-8.53125 0-4.714844 3.820313-8.535157 8.535156-8.535157zm-28.527343-39.738281c-3.332031-3.332031-3.332031-8.734375 0-12.066406l12.066406-12.066406c3.390625-3.273438 8.792969-3.179688 12.066406.210937 3.191407 3.308594 3.191407 8.550781 0 11.855469l-12.066406 12.066406c-3.332031 3.332031-8.734375 3.332031-12.066406 0zm-65.335938 406.660156c0 4.710938-3.820312 8.53125-8.535156 8.53125h-17.066406c-4.710938 0-8.53125-3.820312-8.53125-8.53125 0-4.714844 3.820312-8.535156 8.53125-8.535156h17.066406c4.714844 0 8.535156 3.820312 8.535156 8.535156zm51.199219 17.066406c0 4.710938-3.820312 8.53125-8.535156 8.53125h-17.066406c-4.710938 0-8.53125-3.820312-8.53125-8.53125 0-4.714843 3.820312-8.535156 8.53125-8.535156h17.066406c4.710937 0 8.535156 3.820313 8.535156 8.535156zm51.195312-17.066406c0 4.710938-3.820312 8.53125-8.53125 8.53125h-17.066406c-4.714844 0-8.535156-3.820312-8.535156-8.53125 0-4.714844 3.820312-8.535156 8.535156-8.535156h17.066406c4.710938 0 8.53125 3.820312 8.53125 8.535156zm51.199219 17.066406c0 4.710938-3.820312 8.53125-8.53125 8.53125h-17.066406c-4.714844 0-8.535156-3.820312-8.535156-8.53125 0-4.714843 3.820312-8.535156 8.535156-8.535156h17.066406c4.710938 0 8.53125 3.820313 8.53125 8.535156zm76.796875-25.601562h17.066406v17.066406h-17.066406zm34.132813 8.535156h17.066406v17.066406h-17.066406zm34.132812-8.535156h17.066407v17.066406h-17.066407zm34.132813 8.535156h17.066406v17.066406h-17.066406zm34.132812-8.535156h17.0625v17.066406h-17.0625zm-258.007812-255.988281c7.289062-.023438 14.238281 3.082031 19.082031 8.53125 4.839844-5.445313 11.789063-8.554688 19.078125-8.53125h6.519531c4.710938 0 8.535157 3.820312 8.535157 8.53125 0 4.714843-3.820313 8.535156-8.535157 8.535156h-6.519531c-3.230469 0-6.183594 1.828125-7.628906 4.71875l-3.8125 7.628906c-2.101563 4.214844-7.226563 5.929688-11.445313 3.828125-1.660156-.824218-3.003906-2.171875-3.832031-3.828125l-3.8125-7.628906c-1.445312-2.890625-4.398438-4.71875-7.628906-4.71875h-6.519532c-4.710937 0-8.53125-3.820313-8.53125-8.535156 0-4.710938 3.820313-8.53125 8.53125-8.53125zm-59.730469 34.128906c7.289063-.019531 14.238281 3.085937 19.078125 8.535156 4.84375-5.449219 11.792969-8.554687 19.082031-8.535156h6.519531c4.710938 0 8.53125 3.820313 8.53125 8.535156 0 4.710938-3.820312 8.53125-8.53125 8.53125h-6.519531c-3.230469.003907-6.183593 1.828125-7.628906 4.722657l-3.8125 7.625c-2.105469 4.21875-7.226563 5.933593-11.445313 3.832031-1.660156-.828125-3.003906-2.171875-3.832031-3.832031l-3.8125-7.625c-1.445312-2.890626-4.398437-4.71875-7.628906-4.722657h-6.519531c-4.710938 0-8.53125-3.820312-8.53125-8.53125 0-4.714843 3.820312-8.535156 8.53125-8.535156zm0 0" fill="url(#a)"/></svg>