<svg height="511pt" viewBox="0 1 511 511.99968" width="511pt" xmlns="http://www.w3.org/2000/svg"><path d="m125.570312 415.191406-2.476562-2.472656c-12.0625-12.0625-15.050781-30.488281-7.421875-45.746094l12.824219-25.648437h-59.730469l-54.398437 85.472656c-3.484376 5.480469-5.335938 11.835937-5.335938 18.328125v58.324219h494.917969v-68.265625h-330.109375c-18.105469.003906-35.46875-7.1875-48.269532-19.992188zm0 0" fill="#6fbbc6"/><path d="m281.09375 134.351562 32.175781 15.832032c20.949219 10.316406 37.988281 27.152344 48.554688 47.980468l16.210937 31.988282-26.765625-10.835938c-26.675781-10.800781-47.929687-31.808594-59.042969-58.355468zm0 0" fill="#89b140"/><path d="m252.148438 281.308594 35.789062-2.558594c23.289062-1.675781 45.40625-10.859375 63.03125-26.171875l27.085938-23.527344h-28.878907c-28.777343-.035156-56.378906 11.429688-76.667969 31.839844zm0 0" fill="#89b140"/><path d="m503.949219 281.308594-35.777344-2.558594c-23.292969-1.671875-45.414063-10.855469-63.042969-26.171875l-27.074218-23.550781h28.867187c28.777344-.035156 56.378906 11.425781 76.667969 31.835937zm0 0" fill="#89b140"/><path d="m413.023438 435.183594h-55.953126l16.042969-48.132813c7.78125-23.351562 8.550781-48.472656 2.210938-72.257812l-18.253907-68.460938-6.714843-15.941406h34.132812l7.550781 15.941406 16.996094 54.398438c11.808594 37.78125 14.277344 77.863281 7.195313 116.808593zm0 0" fill="#70400e"/><path d="m378.054688 93.863281-11.351563 34.03125c-7.382813 22.15625-7.382813 46.105469 0 68.261719l11.351563 34.039062 11.089843-26.65625c11.070313-26.566406 11.070313-56.453124 0-83.019531zm0 0" fill="#89b140"/><path d="m475.003906 134.351562-32.175781 15.832032c-20.949219 10.316406-37.984375 27.152344-48.546875 47.980468l-16.210938 31.988282 26.757813-10.835938c26.660156-10.800781 47.902344-31.792968 59.015625-58.324218zm0 0" fill="#89b140"/><path d="m145.5625 102.398438c0 23.5625-19.101562 42.664062-42.664062 42.664062-23.566407 0-42.667969-19.101562-42.667969-42.664062 0-23.566407 19.101562-42.667969 42.667969-42.667969 23.5625 0 42.664062 19.101562 42.664062 42.667969zm0 0" fill="#fbb540"/><g fill="#ea9d2d"><path d="m102.898438 34.132812c-4.714844 0-8.535157-3.820312-8.535157-8.535156v-17.0625c0-4.714844 3.820313-8.535156 8.535157-8.535156 4.710937 0 8.53125 3.820312 8.53125 8.53125v17.066406c0 4.714844-3.820313 8.535156-8.53125 8.535156zm0 0"/><path d="m48.59375 56.625c-2.265625.007812-4.4375-.894531-6.035156-2.5l-12.066406-12.066406c-3.386719-3.273438-3.484376-8.675782-.207032-12.066406 3.273438-3.386719 8.675782-3.480469 12.0625-.207032.074219.066406.144532.136719.210938.207032l12.066406 12.066406c3.332031 3.332031 3.332031 8.734375 0 12.066406-1.601562 1.601562-3.769531 2.5-6.03125 2.5zm0 0"/><path d="m26.097656 110.929688h-17.066406c-4.710938 0-8.53125-3.820313-8.53125-8.53125 0-4.714844 3.820312-8.535157 8.53125-8.535157h17.066406c4.714844 0 8.535156 3.820313 8.535156 8.535157 0 4.710937-3.820312 8.53125-8.535156 8.53125zm0 0"/><path d="m36.527344 177.300781c-4.714844-.003906-8.53125-3.824219-8.53125-8.535156 0-2.261719.898437-4.433594 2.496094-6.03125l12.066406-12.066406c3.390625-3.273438 8.792968-3.179688 12.066406.210937 3.195312 3.304688 3.195312 8.546875 0 11.855469l-12.066406 12.066406c-1.597656 1.597657-3.769532 2.5-6.03125 2.5zm0 0"/><path d="m102.898438 204.792969c-4.714844 0-8.535157-3.820313-8.535157-8.53125v-17.066407c0-4.714843 3.820313-8.535156 8.535157-8.535156 4.710937 0 8.53125 3.820313 8.53125 8.535156v17.066407c0 4.710937-3.820313 8.53125-8.53125 8.53125zm0 0"/><path d="m169.265625 177.300781c-2.261719 0-4.433594-.902343-6.03125-2.5l-12.066406-12.066406c-3.273438-3.390625-3.179688-8.792969.210937-12.066406 3.304688-3.195313 8.546875-3.195313 11.855469 0l12.066406 12.066406c3.332031 3.332031 3.328125 8.734375-.003906 12.066406-1.597656 1.601563-3.769531 2.5-6.03125 2.5zm0 0"/><path d="m196.761719 110.929688h-17.066407c-4.714843 0-8.535156-3.820313-8.535156-8.53125 0-4.714844 3.820313-8.535157 8.535156-8.535157h17.066407c4.710937 0 8.53125 3.820313 8.53125 8.535157 0 4.710937-3.820313 8.53125-8.53125 8.53125zm0 0"/><path d="m157.199219 56.625c-4.710938 0-8.53125-3.820312-8.53125-8.535156.003906-2.261719.902343-4.429688 2.5-6.03125l12.066406-12.066406c3.390625-3.273438 8.792969-3.179688 12.066406.210937 3.191407 3.308594 3.191407 8.550781 0 11.855469l-12.066406 12.066406c-1.597656 1.605469-3.769531 2.507812-6.035156 2.5zm0 0"/></g><path d="m341.820312 426.652344h93.867188c37.699219 0 68.261719 30.5625 68.261719 68.265625v8.53125h-230.390625v-8.53125c0-37.703125 30.5625-68.265625 68.261718-68.265625zm0 0" fill="#f7ba61"/><path d="m77.296875 469.316406h-17.066406c-4.710938 0-8.53125-3.820312-8.53125-8.53125 0-4.714844 3.820312-8.535156 8.53125-8.535156h17.066406c4.714844 0 8.535156 3.820312 8.535156 8.535156 0 4.710938-3.820312 8.53125-8.535156 8.53125zm0 0" fill="#64a8b2"/><path d="m128.496094 486.382812h-17.066406c-4.710938 0-8.53125-3.820312-8.53125-8.53125 0-4.714843 3.820312-8.535156 8.53125-8.535156h17.066406c4.710937 0 8.53125 3.820313 8.53125 8.535156 0 4.710938-3.820313 8.53125-8.53125 8.53125zm0 0" fill="#64a8b2"/><path d="m179.695312 469.316406h-17.066406c-4.714844 0-8.535156-3.820312-8.535156-8.53125 0-4.714844 3.820312-8.535156 8.535156-8.535156h17.066406c4.710938 0 8.53125 3.820312 8.53125 8.535156 0 4.710938-3.820312 8.53125-8.53125 8.53125zm0 0" fill="#64a8b2"/><path d="m230.890625 486.382812h-17.0625c-4.714844 0-8.535156-3.820312-8.535156-8.53125 0-4.714843 3.820312-8.535156 8.535156-8.535156h17.0625c4.714844 0 8.535156 3.820313 8.535156 8.535156 0 4.710938-3.820312 8.53125-8.535156 8.53125zm0 0" fill="#64a8b2"/><path d="m316.222656 452.25h17.066406v17.066406h-17.066406zm0 0" fill="#ea9d2d"/><path d="m350.355469 460.785156h17.066406v17.066406h-17.066406zm0 0" fill="#ea9d2d"/><path d="m384.488281 452.25h17.066407v17.066406h-17.066407zm0 0" fill="#ea9d2d"/><path d="m418.621094 460.785156h17.0625v17.066406h-17.0625zm0 0" fill="#ea9d2d"/><path d="m452.75 452.25h17.066406v17.066406h-17.066406zm0 0" fill="#ea9d2d"/><path d="m213.828125 230.390625c-3.234375.003906-6.191406-1.824219-7.640625-4.71875l-3.8125-7.625c-1.445312-2.890625-4.398438-4.71875-7.628906-4.71875h-6.519532c-4.710937 0-8.53125-3.820313-8.53125-8.535156 0-4.710938 3.820313-8.53125 8.53125-8.53125h6.519532c7.289062-.023438 14.238281 3.085937 19.082031 8.53125 4.839844-5.445313 11.789063-8.554688 19.078125-8.53125h6.519531c4.710938 0 8.53125 3.820312 8.53125 8.53125 0 4.714843-3.820312 8.535156-8.53125 8.535156h-6.519531c-3.230469 0-6.183594 1.828125-7.628906 4.71875l-3.8125 7.625c-1.445313 2.894531-4.40625 4.722656-7.636719 4.71875zm0 0" fill="#cdcdcd"/><path d="m154.09375 264.523438c-3.234375.003906-6.191406-1.824219-7.636719-4.71875l-3.8125-7.628907c-1.445312-2.890625-4.398437-4.714843-7.628906-4.71875h-6.519531c-4.714844 0-8.535156-3.820312-8.535156-8.53125 0-4.714843 3.820312-8.535156 8.535156-8.535156h6.519531c7.289063-.019531 14.234375 3.085937 19.078125 8.535156 4.84375-5.449219 11.792969-8.554687 19.082031-8.535156h6.519531c4.710938 0 8.53125 3.820313 8.53125 8.535156 0 4.710938-3.820312 8.53125-8.53125 8.53125h-6.519531c-3.230469.003907-6.183593 1.828125-7.628906 4.71875l-3.816406 7.628907c-1.445313 2.894531-4.402344 4.722656-7.636719 4.71875zm0 0" fill="#a8a8a8"/><path d="m375.253906 217.242188c0 11.589843-9.394531 20.984374-20.980468 20.984374-11.589844 0-20.984376-9.394531-20.984376-20.984374 0-11.585938 9.394532-20.980469 20.984376-20.980469 11.585937 0 20.980468 9.394531 20.980468 20.980469zm0 0" fill="#5e8569"/><path d="m424.21875 217.242188c0 11.589843-9.394531 20.984374-20.984375 20.984374s-20.984375-9.394531-20.984375-20.984374c0-11.585938 9.394531-20.980469 20.984375-20.980469s20.984375 9.394531 20.984375 20.980469zm0 0" fill="#5e8569"/><path d="m403.234375 238.226562c0 11.585938-9.394531 20.980469-20.984375 20.980469-11.585938 0-20.980469-9.394531-20.980469-20.980469 0-11.589843 9.394531-20.984374 20.980469-20.984374 11.589844 0 20.984375 9.394531 20.984375 20.984374zm0 0" fill="#6b9777"/><path d="m145.5625 337.054688c0 11.78125-9.550781 21.332031-21.332031 21.332031s-21.332031-9.550781-21.332031-21.332031 9.550781-21.332032 21.332031-21.332032 21.332031 9.550782 21.332031 21.332032zm0 0" fill="#aedee2"/><path d="m120.269531 337.054688c0 11.78125-9.550781 21.332031-21.332031 21.332031s-21.332031-9.550781-21.332031-21.332031 9.550781-21.332032 21.332031-21.332032 21.332031 9.550782 21.332031 21.332032zm0 0" fill="#8aced8"/><path d="m94.363281 337.054688c0 11.78125-9.550781 21.332031-21.332031 21.332031s-21.332031-9.550781-21.332031-21.332031 9.550781-21.332032 21.332031-21.332032 21.332031 9.550782 21.332031 21.332032zm0 0" fill="#6fbbc6"/><path d="m503.949219 426.652344h-33.277344c-10.8125-5.597656-22.808594-8.523438-34.988281-8.53125h-10.921875c7.101562-40.011719 4.5-81.144532-7.585938-119.941406l-10.441406-33.433594c17.757813 13.066406 38.835937 20.867187 60.820313 22.5l35.789062 2.5625h.605469c4.714843-.023438 8.515625-3.863282 8.488281-8.578125-.011719-2.21875-.886719-4.34375-2.4375-5.929688l-20.359375-20.476562c-14.898437-14.980469-33.605469-25.601563-54.101563-30.722657 0-.511718.144532-.996093.144532-1.507812-.03125-3.386719-.652344-6.742188-1.832032-9.917969 16.738282-12.425781 29.824219-29.128906 37.886719-48.355469l11.144531-26.632812c1.820313-4.34375-.230468-9.34375-4.574218-11.164062-2.28125-.957032-4.859375-.875-7.074219.21875l-32.136719 15.820312c-12.488281 6.210938-23.757812 14.609375-33.277344 24.804688.800782-17.148438-2.175781-34.261719-8.722656-50.132813l-11.09375-26.648437c-1.816406-4.347657-6.8125-6.398438-11.160156-4.582032-2.269531.945313-4.023438 2.828125-4.804688 5.164063l-11.347656 34.027343c-4.796875 14.492188-6.703125 29.78125-5.613281 45.003907-10.082031-11.472657-22.3125-20.863281-36.003906-27.636719l-32.183594-15.855469c-4.226563-2.085937-9.34375-.351562-11.429687 3.875-1.09375 2.214844-1.171876 4.792969-.21875 7.074219l11.152343 26.628906c8.992188 21.542969 24.296875 39.855469 43.902344 52.53125-.378906 1.878906-.574219 3.789063-.582031 5.707032-23.199219 4.335937-44.546875 15.59375-61.230469 32.289062l-20.359375 20.480469c-3.300781 3.363281-3.246094 8.765625.117188 12.066406 1.585937 1.554687 3.710937 2.429687 5.929687 2.4375h.617187l35.777344-2.558594c23.328125-1.757812 45.597656-10.460937 63.9375-24.984375l14.601563 54.730469c5.925781 22.171875 5.210937 45.59375-2.058594 67.359375l-11.277344 33.773438h-11.949219c-12.175781.007812-24.171874 2.933593-34.984374 8.535156h-157.742188l-19.976562-19.96875c-9.472657-9.460938-11.816407-23.929688-5.808594-35.898438l1.976562-3.976562c16.460938-.59375 29.324219-14.421875 28.726563-30.882813-.59375-16.457031-14.421875-29.320312-30.882813-28.722656-3.621094.128906-7.191406.921875-10.53125 2.332031-.316406.1875-.621094.394532-.914062.625-8.136719-3.984375-17.664063-3.960937-25.785156.058594-4.003907-1.96875-8.40625-3.003906-12.867188-3.03125-16.496094 0-29.867188 13.371094-29.867188 29.867188.027344 6.683593 2.320313 13.164062 6.503907 18.378906l-47.835938 75.167968c-.128906.207032-.136719.4375-.25.648438-.253906.507812-.457031 1.035156-.605469 1.582031-.175781.550781-.289062 1.125-.339843 1.703125 0 .230469-.136719.429688-.136719.667969v68.261719c0 4.714844 3.820312 8.535156 8.53125 8.535156h494.917969c4.714843 0 8.535156-3.820312 8.535156-8.535156v-68.28125c0-4.710938-3.820313-8.53125-8.535156-8.53125zm-26.410157-159.808594 4.269532 4.320312-13.058594-.949218c-19.164062-1.425782-37.507812-8.351563-52.835938-19.941406 5.46875-1.933594 10.238282-5.441407 13.722657-10.078126 18.15625 4.199219 34.761719 13.433594 47.902343 26.648438zm-30.941406-108.980469 11.734375-5.777343-2.347656 5.605468c-6.914063 16.375-18.117187 30.585938-32.425781 41.136719-4.78125-3.523437-10.523438-5.507813-16.460938-5.691406 9.757813-15.09375 23.402344-27.28125 39.5-35.273438zm-40.429687 52.246094c6.875.003906 12.445312 5.574219 12.453125 12.449219-.054688 4.269531-2.316406 8.210937-5.976563 10.410156-3.011719-7.789062-9.179687-13.9375-16.980469-16.929688 2.226563-3.675781 6.207032-5.921874 10.503907-5.929687zm-8.53125 33.433594c0 6.875-5.574219 12.449219-12.449219 12.449219s-12.449219-5.574219-12.449219-12.449219c0-6.878907 5.574219-12.449219 12.449219-12.449219 6.875.003906 12.445312 5.574219 12.449219 12.449219zm-97.523438-85.851563-2.347656-5.605468 11.734375 5.777343c16.46875 8.167969 30.367188 20.71875 40.171875 36.273438-5.035156 1.300781-9.640625 3.917969-13.335937 7.574219-16.148438-10.785157-28.746094-26.097657-36.222657-44.019532zm-12.800781 112.523438-13.054688.949218 4.265626-4.320312c14.703124-14.699219 33.628906-24.445312 54.132812-27.875 2.609375 3.808594 6.074219 6.960938 10.113281 9.199219-15.808593 12.820312-35.152343 20.515625-55.449219 22.046875zm69.757812-35.214844c-6.875-.074219-12.390624-5.703125-12.316406-12.578125.070313-6.878906 5.703125-12.390625 12.578125-12.320313 4.707031.050782 8.984375 2.75 11.054688 6.980469.328125.546875.722656 1.058594 1.167969 1.519531-5.992188 3.789063-10.421876 9.613282-12.476563 16.398438zm17.714844-104.402344 4.148438-12.414062 2.335937 5.613281c8.113281 19.605469 9.789063 41.28125 4.789063 61.898437-.785156 3.175782-4.089844 11.382813-6.597656 17.476563-.699219-.792969-1.4375-1.546875-2.21875-2.261719 0-.078125 0-.160156 0-.238281l-2.414063-7.246094c-6.753906-20.394531-6.769531-42.425781-.035156-62.828125zm8.773438 181.992188-11.394532-42.664063c4.035157 2.046875 8.492188 3.128907 13.015626 3.15625 2.039062-.003906 4.070312-.21875 6.066406-.640625l9.640625 30.855469c11.359375 36.472656 13.738281 75.152344 6.929687 112.742187l-.367187 2.082032h-35.703125l9.457031-28.375c8.339844-24.929688 9.160156-51.761719 2.363281-77.15625zm-258.59375 114.0625h-100.382813l39.0625-61.386719c7.285157 2.613281 15.320313 2.117187 22.230469-1.363281 6.558594 3.285156 14.136719 3.917968 21.152344 1.765625-7.882813 18.074219-3.902344 39.128906 10.027344 53.082031zm-13.238282-89.597656c-.03125 6.644531-5.140624 12.160156-11.765624 12.699218 3.914062-8.011718 3.914062-17.382812 0-25.394531 6.625.535156 11.734374 6.050781 11.765624 12.695313zm25.300782 0c-.027344 6.386718-4.761719 11.777343-11.089844 12.628906 3.867188-7.972656 3.867188-17.28125 0-25.257813 6.328125.851563 11.0625 6.242188 11.089844 12.628907zm-63.996094-12.800782c7.070312 0 12.800781 5.734375 12.800781 12.800782 0 7.070312-5.730469 12.800781-12.800781 12.800781s-12.800781-5.730469-12.800781-12.800781c0-7.066407 5.730469-12.800782 12.800781-12.800782zm-55.464844 119.464844h267.179688c-12.6875 14.035156-19.714844 32.277344-19.722656 51.199219h-247.457032zm264.523438 51.199219c.039062-32.972657 26.757812-59.695313 59.730468-59.734375h93.867188c32.972656.039062 59.691406 26.761718 59.730469 59.734375zm210.671875-51.199219h2.65625v3.039062c-.855469-1.050781-1.757813-2.039062-2.65625-3.039062zm0 0"/><path d="m102.898438 153.59375c28.273437 0 51.195312-22.921875 51.195312-51.199219 0-28.273437-22.921875-51.195312-51.195312-51.195312-28.277344 0-51.199219 22.921875-51.199219 51.195312.027343 28.265625 22.933593 51.171875 51.199219 51.199219zm0-85.328125c18.847656 0 34.128906 15.28125 34.128906 34.132813 0 18.847656-15.28125 34.128906-34.128906 34.128906-18.851563 0-34.132813-15.28125-34.132813-34.128906 0-18.851563 15.28125-34.132813 34.132813-34.132813zm0 0"/><path d="m102.898438 34.132812c4.710937 0 8.53125-3.820312 8.53125-8.535156v-17.0625c0-4.714844-3.820313-8.535156-8.53125-8.535156-4.714844 0-8.535157 3.820312-8.535157 8.53125v17.066406c0 4.714844 3.820313 8.535156 8.535157 8.535156zm0 0"/><path d="m42.558594 54.125c3.390625 3.273438 8.792968 3.179688 12.066406-.210938 3.195312-3.304687 3.195312-8.546874 0-11.855468l-12.066406-12.066406c-3.273438-3.386719-8.675782-3.480469-12.066406-.207032-3.386719 3.273438-3.480469 8.675782-.207032 12.066406.066406.070313.136719.140626.207032.207032zm0 0"/><path d="m9.03125 110.929688h17.066406c4.714844 0 8.535156-3.820313 8.535156-8.53125 0-4.714844-3.820312-8.535157-8.535156-8.535157h-17.066406c-4.710938 0-8.53125 3.820313-8.53125 8.535157 0 4.710937 3.820312 8.53125 8.53125 8.53125zm0 0"/><path d="m42.558594 150.667969-12.066406 12.066406c-3.386719 3.273437-3.480469 8.675781-.207032 12.066406 3.273438 3.390625 8.675782 3.484375 12.066406.207031.070313-.066406.140626-.136718.207032-.207031l12.066406-12.066406c3.273438-3.390625 3.179688-8.792969-.210938-12.066406-3.304687-3.195313-8.546874-3.195313-11.855468 0zm0 0"/><path d="m94.363281 179.195312v17.066407c0 4.710937 3.820313 8.53125 8.535157 8.53125 4.710937 0 8.53125-3.820313 8.53125-8.53125v-17.066407c0-4.714843-3.820313-8.535156-8.53125-8.535156-4.714844 0-8.535157 3.820313-8.535157 8.535156zm0 0"/><path d="m169.265625 177.300781c4.714844-.003906 8.535156-3.824219 8.53125-8.535156 0-2.261719-.898437-4.433594-2.496094-6.03125l-12.066406-12.066406c-3.390625-3.273438-8.792969-3.179688-12.066406.210937-3.195313 3.304688-3.195313 8.546875 0 11.855469l12.066406 12.066406c1.597656 1.597657 3.769531 2.5 6.03125 2.5zm0 0"/><path d="m171.160156 102.398438c0 4.710937 3.820313 8.53125 8.535156 8.53125h17.066407c4.710937 0 8.53125-3.820313 8.53125-8.53125 0-4.714844-3.820313-8.535157-8.53125-8.535157h-17.066407c-4.714843 0-8.535156 3.820313-8.535156 8.535157zm0 0"/><path d="m157.199219 56.625c2.265625.007812 4.4375-.894531 6.035156-2.5l12.066406-12.066406c3.273438-3.390625 3.179688-8.792969-.210937-12.066406-3.304688-3.191407-8.550782-3.191407-11.855469 0l-12.066406 12.066406c-3.332031 3.332031-3.332031 8.734375.003906 12.066406 1.597656 1.601562 3.765625 2.5 6.027344 2.5zm0 0"/><path d="m77.296875 452.25h-17.066406c-4.710938 0-8.53125 3.820312-8.53125 8.535156 0 4.710938 3.820312 8.53125 8.53125 8.53125h17.066406c4.714844 0 8.535156-3.820312 8.535156-8.53125 0-4.714844-3.820312-8.535156-8.535156-8.535156zm0 0"/><path d="m128.496094 469.316406h-17.066406c-4.710938 0-8.53125 3.820313-8.53125 8.535156 0 4.710938 3.820312 8.53125 8.53125 8.53125h17.066406c4.710937 0 8.53125-3.820312 8.53125-8.53125 0-4.714843-3.820313-8.535156-8.53125-8.535156zm0 0"/><path d="m179.695312 452.25h-17.066406c-4.714844 0-8.535156 3.820312-8.535156 8.535156 0 4.710938 3.820312 8.53125 8.535156 8.53125h17.066406c4.710938 0 8.53125-3.820312 8.53125-8.53125 0-4.714844-3.820312-8.535156-8.53125-8.535156zm0 0"/><path d="m230.890625 469.316406h-17.0625c-4.714844 0-8.535156 3.820313-8.535156 8.535156 0 4.710938 3.820312 8.53125 8.535156 8.53125h17.0625c4.714844 0 8.535156-3.820312 8.535156-8.53125 0-4.714843-3.820312-8.535156-8.535156-8.535156zm0 0"/><path d="m316.222656 452.25h17.066406v17.066406h-17.066406zm0 0"/><path d="m350.355469 460.785156h17.066406v17.066406h-17.066406zm0 0"/><path d="m384.488281 452.25h17.066407v17.066406h-17.066407zm0 0"/><path d="m418.621094 460.785156h17.0625v17.066406h-17.0625zm0 0"/><path d="m452.75 452.25h17.066406v17.066406h-17.066406zm0 0"/><path d="m188.226562 196.261719c-4.710937 0-8.53125 3.820312-8.53125 8.53125 0 4.710937 3.820313 8.53125 8.53125 8.53125h6.519532c3.230468.003906 6.183594 1.832031 7.628906 4.71875l3.8125 7.628906c2.105469 4.21875 7.226562 5.933594 11.445312 3.832031 1.660157-.828125 3.003907-2.171875 3.832032-3.832031l3.8125-7.628906c1.445312-2.886719 4.398437-4.714844 7.628906-4.71875h6.519531c4.710938 0 8.53125-3.820313 8.53125-8.53125 0-4.710938-3.820312-8.53125-8.53125-8.53125h-6.519531c-7.289062-.023438-14.238281 3.082031-19.078125 8.53125-4.84375-5.449219-11.792969-8.554688-19.082031-8.53125zm0 0"/><path d="m128.496094 230.390625c-4.714844 0-8.535156 3.820313-8.535156 8.535156 0 4.710938 3.820312 8.53125 8.535156 8.53125h6.519531c3.230469.003907 6.183594 1.828125 7.628906 4.71875l3.8125 7.628907c2.101563 4.21875 7.226563 5.933593 11.445313 3.832031 1.65625-.828125 3.003906-2.171875 3.828125-3.832031l3.816406-7.628907c1.445313-2.890625 4.398437-4.714843 7.628906-4.71875h6.519531c4.710938 0 8.53125-3.820312 8.53125-8.53125 0-4.714843-3.820312-8.535156-8.53125-8.535156h-6.519531c-7.289062-.019531-14.238281 3.085937-19.082031 8.535156-4.84375-5.449219-11.789062-8.554687-19.078125-8.535156zm0 0"/></svg>