<svg height="512pt" viewBox="0 0 512 511" width="512pt" xmlns="http://www.w3.org/2000/svg"><path d="m439.503906 309.765625v-261.765625c0-12.097656-5.734375-22.84375-14.621094-29.703125-8.890624 6.859375-14.621093 17.605469-14.621093 29.703125v261.765625c-36.644531 14.835937-62.496094 50.757813-62.496094 92.722656 0 47.355469 32.917969 87.019531 77.117187 97.363281 44.203126-10.34375 77.121094-50.007812 77.121094-97.363281-.003906-41.964843-25.855468-77.886719-62.5-92.722656zm0 0" fill="#72c6cc"/><path d="m178.183594 194.328125c-25.535156 9.113281-43.8125 33.5-43.8125 62.164063 0 28.664062 18.277344 53.050781 43.8125 62.164062 25.53125-9.113281 43.808594-33.5 43.808594-62.164062 0-28.664063-18.277344-53.050782-43.808594-62.164063zm0 0" fill="#ffc943"/><path d="m381.003906 405.578125c0-24.8125 16.144532-45.84375 38.5-53.191406-5.507812-1.8125-11.386718-2.804688-17.5-2.804688-30.929687 0-56 25.070313-56 55.996094 0 30.929687 25.070313 56 56 56 6.113282 0 11.992188-.992187 17.5-2.804687-22.355468-7.351563-38.5-28.378907-38.5-53.195313zm0 0" fill="#fff"/><path d="m458 405.578125c0-24.8125-16.144531-45.84375-38.496094-53.191406-22.355468 7.347656-38.5 28.378906-38.5 53.191406 0 24.816406 16.144532 45.84375 38.5 53.195313 22.351563-7.351563 38.496094-28.378907 38.496094-53.195313zm0 0" fill="#ef7159"/><path d="m195.691406 296.007812-.125.121094c-3.921875 3.890625-3.945312 10.222656-.058594 14.144532 1.957032 1.96875 4.527344 2.953124 7.101563 2.953124 2.542969 0 5.09375-.964843 7.039063-2.898437l.125-.125c3.921874-3.890625 3.945312-10.21875.058593-14.140625-3.890625-3.921875-10.222656-3.945312-14.140625-.054688zm0 0"/><path d="m172.214844 310.105469c-19.816406 5.972656-41.203125.605469-55.8125-14.007813-21.835938-21.835937-21.835938-57.363281 0-79.199218 21.832031-21.835938 57.363281-21.835938 79.199218 0 15.074219 15.078124 20.261719 37.027343 13.539063 57.285156-1.742187 5.242187 1.097656 10.902344 6.339844 12.640625 5.242187 1.742187 10.898437-1.097657 12.640625-6.335938 9.125-27.488281 2.082031-57.273437-18.378906-77.730469-29.632813-29.632812-77.851563-29.632812-107.484376 0-29.628906 29.632813-29.628906 77.847657 0 107.480469 14.480469 14.476563 33.847657 22.269531 53.710938 22.269531 7.34375 0 14.761719-1.066406 22.015625-3.253906 5.289063-1.597656 8.285156-7.171875 6.691406-12.460937-1.597656-5.289063-7.175781-8.28125-12.460937-6.6875zm0 0"/><path d="m155.996094 171.367188c5.523437 0 10-4.476563 10-10v-50.871094c0-5.523438-4.476563-10-10-10-5.523438 0-10 4.476562-10 10v50.871094c0 5.523437 4.476562 10 10 10zm0 0"/><path d="m155.996094 341.617188c-5.523438 0-10 4.476562-10 10v50.871093c0 5.523438 4.476562 10 10 10 5.523437 0 10-4.476562 10-10v-50.871093c0-5.523438-4.476563-10-10-10zm0 0"/><path d="m241.121094 256.492188c0 5.523437 4.476562 10 10 10h50.871094c5.519531 0 10-4.476563 10-10 0-5.523438-4.480469-10-10-10h-50.871094c-5.523438 0-10 4.476562-10 10zm0 0"/><path d="m70.871094 256.492188c0-5.523438-4.476563-10-10-10h-50.871094c-5.523438 0-10 4.476562-10 10 0 5.523437 4.476562 10 10 10h50.871094c5.523437 0 10-4.476563 10-10zm0 0"/><path d="m223.257812 199.230469c2.558594 0 5.117188-.976563 7.070313-2.929688l35.972656-35.972656c3.90625-3.90625 3.90625-10.234375 0-14.140625-3.902343-3.90625-10.234375-3.90625-14.140625 0l-35.972656 35.972656c-3.90625 3.902344-3.90625 10.234375 0 14.140625 1.953125 1.953125 4.511719 2.929688 7.070312 2.929688zm0 0"/><path d="m81.660156 316.683594-35.96875 35.972656c-3.90625 3.90625-3.90625 10.238281 0 14.144531 1.953125 1.949219 4.511719 2.925781 7.070313 2.925781 2.558593 0 5.117187-.976562 7.070312-2.925781l35.972657-35.972656c3.902343-3.90625 3.902343-10.238281 0-14.144531-3.90625-3.902344-10.238282-3.902344-14.144532 0zm0 0"/><path d="m230.328125 316.683594c-3.90625-3.902344-10.234375-3.902344-14.140625 0-3.90625 3.90625-3.90625 10.238281 0 14.140625l35.972656 35.972656c1.953125 1.953125 4.511719 2.929687 7.070313 2.929687 2.558593 0 5.117187-.976562 7.070312-2.929687 3.90625-3.902344 3.90625-10.234375 0-14.140625zm0 0"/><path d="m81.660156 196.300781c1.953125 1.953125 4.511719 2.929688 7.074219 2.929688 2.558594 0 5.117187-.976563 7.070313-2.929688 3.902343-3.90625 3.902343-10.238281 0-14.140625l-35.972657-35.972656c-3.90625-3.90625-10.234375-3.90625-14.144531 0-3.902344 3.90625-3.902344 10.234375 0 14.140625zm0 0"/><path d="m448.671875 358.910156c-10.078125-10.074218-22.835937-16.488281-36.667969-18.578125v-27.113281h4.332032c5.523437 0 10-4.476562 10-9.996094 0-5.523437-4.476563-10-10-10h-4.332032v-26.945312h4.332032c5.523437 0 10-4.476563 10-10 0-5.523438-4.476563-10-10-10h-4.332032v-26.945313h4.332032c5.523437 0 10-4.476562 10-10 0-5.523437-4.476563-10-10-10h-4.332032v-26.945312h4.332032c5.523437 0 10-4.476563 10-10 0-5.523438-4.476563-10-10-10h-4.332032v-26.945313h4.363282c5.523437 0 10-4.476562 10-10 0-5.523437-4.476563-10-10-10h-4.363282v-26.945312h4.332032c5.523437 0 10-4.476563 10-9.996094 0-5.523438-4.476563-10-10-10h-4.695313c-1.15625-4.246094-5.027344-7.371094-9.636719-7.371094-5.523437 0-10 4.480469-10 10v279.207032c-13.832031 2.089843-26.59375 8.5-36.667968 18.578124-14.597657 14.597657-21.441407 34.71875-18.777344 55.210938.710937 5.480469 5.726562 9.34375 11.203125 8.628906 5.480469-.710937 9.339843-5.730468 8.628906-11.207031-1.855469-14.289063 2.914063-28.320313 13.085937-38.492187 8.6875-8.691407 20.238282-13.472657 32.527344-13.472657 12.285156 0 23.835938 4.78125 32.523438 13.472657 8.6875 8.6875 13.472656 20.238281 13.472656 32.523437 0 12.289063-4.78125 23.839844-13.472656 32.527344-10.425782 10.425781-24.785156 15.152343-39.390625 12.960937-5.464844-.816406-10.550781 2.945313-11.371094 8.40625-.816406 5.460938 2.945313 10.550782 8.40625 11.371094 3.234375.484375 6.480469.722656 9.714844.722656 17.386719 0 34.355469-6.890625 46.78125-19.320312 12.46875-12.464844 19.332031-29.039063 19.332031-46.667969s-6.863281-34.203125-19.328125-46.667969zm0 0"/><path d="m369.378906 438.007812c-3.894531-3.914062-10.226562-3.925781-14.140625-.03125-3.914062 3.898438-3.929687 10.230469-.03125 14.144532l.113281.113281c1.953126 1.960937 4.519532 2.941406 7.085938 2.941406 2.550781 0 5.105469-.96875 7.054688-2.914062 3.914062-3.894531 3.929687-10.226563.03125-14.140625zm0 0"/><path d="m449.5 303.25v-255.25c0-26.191406-21.308594-47.5-47.496094-47.5-26.191406 0-47.5 21.308594-47.5 47.5v255.25c-38.1875 18.234375-62.496094 56.476562-62.496094 99.238281 0 60.652344 49.34375 109.996094 109.996094 109.996094s109.996094-49.34375 109.996094-109.996094c0-42.761719-24.3125-81.003906-62.5-99.238281zm-47.496094 189.238281c-49.625 0-90-40.375-90-90 0-36.859375 22.082032-69.617187 56.253906-83.453125 3.773438-1.527344 6.246094-5.195312 6.246094-9.269531v-261.765625c0-15.164062 12.335938-27.5 27.5-27.5 15.160156 0 27.5 12.335938 27.5 27.5v261.765625c0 4.074219 2.46875 7.742187 6.246094 9.269531 34.171875 13.835938 56.25 46.59375 56.25 83.453125 0 49.625-40.371094 90-89.996094 90zm0 0"/></svg>